<svg width="14" height="12" viewBox="0 0 14 12" fill="none" xmlns="http://www.w3.org/2000/svg">
<path fill-rule="evenodd" clip-rule="evenodd" d="M7.19591 2.61517C9.09435 2.61526 10.9202 3.46937 12.2961 5.00097C12.3997 5.11921 12.5653 5.11772 12.6673 4.99762L13.6577 3.82729C13.7094 3.76638 13.7382 3.68387 13.7378 3.59802C13.7373 3.51217 13.7077 3.43006 13.6554 3.36986C10.0442 -0.682369 4.34706 -0.682369 0.735832 3.36986C0.683521 3.43002 0.653839 3.5121 0.653357 3.59795C0.652874 3.6838 0.68163 3.76634 0.733261 3.82729L1.72393 4.99762C1.82591 5.1179 1.99164 5.11939 2.09519 5.00097C3.47124 3.46927 5.29729 2.61516 7.19591 2.61517ZM7.1959 6.42275C8.23897 6.42267 9.24481 6.87663 10.018 7.6964C10.1226 7.81275 10.2873 7.81023 10.3892 7.69072L11.3785 6.52039C11.4306 6.459 11.4595 6.37572 11.4587 6.28919C11.458 6.20265 11.4276 6.12008 11.3745 6.05995C9.02 3.49554 5.3738 3.49554 3.01933 6.05995C2.96614 6.12008 2.9358 6.20269 2.9351 6.28926C2.9344 6.37582 2.96341 6.45909 3.01561 6.52039L4.00457 7.69072C4.10651 7.81023 4.27125 7.81275 4.37582 7.6964C5.14849 6.87717 6.15353 6.42326 7.1959 6.42275ZM9.17753 8.98459C9.17904 9.07136 9.1499 9.15503 9.097 9.21583L7.3858 11.2378C7.33564 11.2972 7.26725 11.3307 7.19589 11.3307C7.12453 11.3307 7.05614 11.2972 7.00598 11.2378L5.2945 9.21583C5.24163 9.15498 5.21254 9.07129 5.21411 8.98451C5.21568 8.89773 5.24776 8.81556 5.30278 8.75739C6.39561 7.67512 7.99617 7.67512 9.089 8.75739C9.14398 8.81561 9.17601 8.89781 9.17753 8.98459Z" fill="black"/>
</svg>
